# xmcd
#
# Track frame offsets: 
#        150
#        13206
#        27181
#        51903
#        72166
#        90220
#        103885
#        120696
#        141529
#        163304
#        182129
#        197634
#        222748
#
# Disc length: 3168 seconds
#
# Revision: 0
# Processed by: cddbd v1.5.1PL2 Copyright (c) Steve Scherf et al.
# Submitted via: ExactAudioCopy v0.95b3
#
DISCID=c60c5e0d
DTITLE=Spillemændende - Linie 13 vol. 3
DYEAR=2004
DGENRE=Folk
TTITLE0=Den Glade Vandrer
TTITLE1=Linie 13's Vals
TTITLE2=To Brune Øjne
TTITLE3=Hils Fra Mig Derhjemme
TTITLE4=Fiskerpigens Sang
TTITLE5=Hvor Roser Aldrig Dør
TTITLE6=Nu Er Det Slut Med At Ture
TTITLE7=Seeman
TTITLE8=Den Sorte Sejler
TTITLE9=Mølleåen
TTITLE10=I Huset Derhjemme
TTITLE11=Alperosen
TTITLE12=Medley: Det Var på Capri, Når Lygterne Tændes, Du Gamle Måne
EXTD=
EXTT0=
EXTT1=
EXTT2=
EXTT3=
EXTT4=
EXTT5=
EXTT6=
EXTT7=
EXTT8=
EXTT9=
EXTT10=
EXTT11=
EXTT12=
PLAYORDER=
